<svg id="visual" viewBox="0 0 960 540" width="960" height="540" xmlns="http://www.w3.org/2000/svg" xmlns:xlink="http://www.w3.org/1999/xlink" version="1.1"><rect x="0" y="0" width="960" height="540" fill="#ffffff"></rect><path d="M386 540L379.2 527.2C372.3 514.3 358.7 488.7 341.8 463C325 437.3 305 411.7 306.7 386C308.3 360.3 331.7 334.7 346.3 308.8C361 283 367 257 383.2 231.2C399.3 205.3 425.7 179.7 436 154C446.3 128.3 440.7 102.7 419.2 77C397.7 51.3 360.3 25.7 341.7 12.8L323 0L960 0L960 12.8C960 25.7 960 51.3 960 77C960 102.7 960 128.3 960 154C960 179.7 960 205.3 960 231.2C960 257 960 283 960 308.8C960 334.7 960 360.3 960 386C960 411.7 960 437.3 960 463C960 488.7 960 514.3 960 527.2L960 540Z" fill="#38aa95"></path><path d="M474 540L456.2 527.2C438.3 514.3 402.7 488.7 412.3 463C422 437.3 477 411.7 487.2 386C497.3 360.3 462.7 334.7 432 308.8C401.3 283 374.7 257 371.8 231.2C369 205.3 390 179.7 423.8 154C457.7 128.3 504.3 102.7 502.8 77C501.3 51.3 451.7 25.7 426.8 12.8L402 0L960 0L960 12.8C960 25.7 960 51.3 960 77C960 102.7 960 128.3 960 154C960 179.7 960 205.3 960 231.2C960 257 960 283 960 308.8C960 334.7 960 360.3 960 386C960 411.7 960 437.3 960 463C960 488.7 960 514.3 960 527.2L960 540Z" fill="#329685"></path><path d="M607 540L606.8 527.2C606.7 514.3 606.3 488.7 591.5 463C576.7 437.3 547.3 411.7 529.3 386C511.3 360.3 504.7 334.7 521.2 308.8C537.7 283 577.3 257 602.5 231.2C627.7 205.3 638.3 179.7 634.8 154C631.3 128.3 613.7 102.7 592.8 77C572 51.3 548 25.7 536 12.8L524 0L960 0L960 12.8C960 25.7 960 51.3 960 77C960 102.7 960 128.3 960 154C960 179.7 960 205.3 960 231.2C960 257 960 283 960 308.8C960 334.7 960 360.3 960 386C960 411.7 960 437.3 960 463C960 488.7 960 514.3 960 527.2L960 540Z" fill="#2c8375"></path><path d="M659 540L650.8 527.2C642.7 514.3 626.3 488.7 625 463C623.7 437.3 637.3 411.7 644 386C650.7 360.3 650.3 334.7 654 308.8C657.7 283 665.3 257 678.3 231.2C691.3 205.3 709.7 179.7 700.7 154C691.7 128.3 655.3 102.7 655.8 77C656.3 51.3 693.7 25.7 712.3 12.8L731 0L960 0L960 12.8C960 25.7 960 51.3 960 77C960 102.7 960 128.3 960 154C960 179.7 960 205.3 960 231.2C960 257 960 283 960 308.8C960 334.7 960 360.3 960 386C960 411.7 960 437.3 960 463C960 488.7 960 514.3 960 527.2L960 540Z" fill="#267065"></path><path d="M798 540L793 527.2C788 514.3 778 488.7 777.8 463C777.7 437.3 787.3 411.7 788 386C788.7 360.3 780.3 334.7 770.3 308.8C760.3 283 748.7 257 736.8 231.2C725 205.3 713 179.7 709.8 154C706.7 128.3 712.3 102.7 726.8 77C741.3 51.3 764.7 25.7 776.3 12.8L788 0L960 0L960 12.8C960 25.7 960 51.3 960 77C960 102.7 960 128.3 960 154C960 179.7 960 205.3 960 231.2C960 257 960 283 960 308.8C960 334.7 960 360.3 960 386C960 411.7 960 437.3 960 463C960 488.7 960 514.3 960 527.2L960 540Z" fill="#225d56"></path><path d="M890 540L887.8 527.2C885.7 514.3 881.3 488.7 880 463C878.7 437.3 880.3 411.7 881 386C881.7 360.3 881.3 334.7 873.7 308.8C866 283 851 257 844.7 231.2C838.3 205.3 840.7 179.7 838.8 154C837 128.3 831 102.7 832.2 77C833.3 51.3 841.7 25.7 845.8 12.8L850 0L960 0L960 12.8C960 25.7 960 51.3 960 77C960 102.7 960 128.3 960 154C960 179.7 960 205.3 960 231.2C960 257 960 283 960 308.8C960 334.7 960 360.3 960 386C960 411.7 960 437.3 960 463C960 488.7 960 514.3 960 527.2L960 540Z" fill="#1d4b46"></path></svg>