<svg id="visual" viewBox="0 0 960 540" width="960" height="540" xmlns="http://www.w3.org/2000/svg" xmlns:xlink="http://www.w3.org/1999/xlink" version="1.1"><rect x="0" y="0" width="960" height="540" fill="#ffffff"></rect><path d="M436 540L441.5 525C447 510 458 480 442.8 450C427.7 420 386.3 390 385.8 360C385.3 330 425.7 300 463.5 270C501.3 240 536.7 210 543.8 180C551 150 530 120 481.2 90C432.3 60 355.7 30 317.3 15L279 0L960 0L960 15C960 30 960 60 960 90C960 120 960 150 960 180C960 210 960 240 960 270C960 300 960 330 960 360C960 390 960 420 960 450C960 480 960 510 960 525L960 540Z" fill="#38aa95"></path><path d="M403 540L440.2 525C477.3 510 551.7 480 568.8 450C586 420 546 390 550 360C554 330 602 300 586.5 270C571 240 492 210 479.7 180C467.3 150 521.7 120 554 90C586.3 60 596.7 30 601.8 15L607 0L960 0L960 15C960 30 960 60 960 90C960 120 960 150 960 180C960 210 960 240 960 270C960 300 960 330 960 360C960 390 960 420 960 450C960 480 960 510 960 525L960 540Z" fill="#329685"></path><path d="M614 540L605.2 525C596.3 510 578.7 480 555.8 450C533 420 505 390 495.5 360C486 330 495 300 517.8 270C540.7 240 577.3 210 610.3 180C643.3 150 672.7 120 684.5 90C696.3 60 690.7 30 687.8 15L685 0L960 0L960 15C960 30 960 60 960 90C960 120 960 150 960 180C960 210 960 240 960 270C960 300 960 330 960 360C960 390 960 420 960 450C960 480 960 510 960 525L960 540Z" fill="#2c8375"></path><path d="M760 540L732.3 525C704.7 510 649.3 480 638.8 450C628.3 420 662.7 390 671.2 360C679.7 330 662.3 300 674 270C685.7 240 726.3 210 744.3 180C762.3 150 757.7 120 755 90C752.3 60 751.7 30 751.3 15L751 0L960 0L960 15C960 30 960 60 960 90C960 120 960 150 960 180C960 210 960 240 960 270C960 300 960 330 960 360C960 390 960 420 960 450C960 480 960 510 960 525L960 540Z" fill="#267065"></path><path d="M709 540L726 525C743 510 777 480 774.3 450C771.7 420 732.3 390 718.7 360C705 330 717 300 734 270C751 240 773 210 785.7 180C798.3 150 801.7 120 789 90C776.3 60 747.7 30 733.3 15L719 0L960 0L960 15C960 30 960 60 960 90C960 120 960 150 960 180C960 210 960 240 960 270C960 300 960 330 960 360C960 390 960 420 960 450C960 480 960 510 960 525L960 540Z" fill="#225d56"></path><path d="M777 540L777.3 525C777.7 510 778.3 480 786.3 450C794.3 420 809.7 390 827.5 360C845.3 330 865.7 300 875 270C884.3 240 882.7 210 874.5 180C866.3 150 851.7 120 850.7 90C849.7 60 862.3 30 868.7 15L875 0L960 0L960 15C960 30 960 60 960 90C960 120 960 150 960 180C960 210 960 240 960 270C960 300 960 330 960 360C960 390 960 420 960 450C960 480 960 510 960 525L960 540Z" fill="#1d4b46"></path></svg>