<svg id="visual" viewBox="0 0 960 540" width="960" height="540" xmlns="http://www.w3.org/2000/svg" xmlns:xlink="http://www.w3.org/1999/xlink" version="1.1"><rect x="0" y="0" width="960" height="540" fill="#ffffff"></rect><defs><linearGradient id="grad1_0" x1="43.8%" y1="0%" x2="100%" y2="100%"><stop offset="14.444444444444446%" stop-color="#1d4b46" stop-opacity="1"></stop><stop offset="85.55555555555554%" stop-color="#1d4b46" stop-opacity="1"></stop></linearGradient></defs><defs><linearGradient id="grad1_1" x1="43.8%" y1="0%" x2="100%" y2="100%"><stop offset="14.444444444444446%" stop-color="#1d4b46" stop-opacity="1"></stop><stop offset="85.55555555555554%" stop-color="#8aa19d" stop-opacity="1"></stop></linearGradient></defs><defs><linearGradient id="grad1_2" x1="43.8%" y1="0%" x2="100%" y2="100%"><stop offset="14.444444444444446%" stop-color="#ffffff" stop-opacity="1"></stop><stop offset="85.55555555555554%" stop-color="#8aa19d" stop-opacity="1"></stop></linearGradient></defs><defs><linearGradient id="grad2_0" x1="0%" y1="0%" x2="56.3%" y2="100%"><stop offset="14.444444444444446%" stop-color="#1d4b46" stop-opacity="1"></stop><stop offset="85.55555555555554%" stop-color="#1d4b46" stop-opacity="1"></stop></linearGradient></defs><defs><linearGradient id="grad2_1" x1="0%" y1="0%" x2="56.3%" y2="100%"><stop offset="14.444444444444446%" stop-color="#8aa19d" stop-opacity="1"></stop><stop offset="85.55555555555554%" stop-color="#1d4b46" stop-opacity="1"></stop></linearGradient></defs><defs><linearGradient id="grad2_2" x1="0%" y1="0%" x2="56.3%" y2="100%"><stop offset="14.444444444444446%" stop-color="#8aa19d" stop-opacity="1"></stop><stop offset="85.55555555555554%" stop-color="#ffffff" stop-opacity="1"></stop></linearGradient></defs><g transform="translate(960, 0)"><path d="M0 351C-43.2 323.8 -86.3 296.5 -109.1 263.3C-131.8 230.1 -134.1 190.9 -173.2 173.2C-212.4 155.6 -288.5 159.6 -324.3 134.3C-360.1 109 -355.5 54.5 -351 0L0 0Z" fill="#c3cfcd"></path><path d="M0 234C-28.8 215.8 -57.6 197.7 -72.7 175.5C-87.9 153.4 -89.4 127.2 -115.5 115.5C-141.6 103.7 -192.3 106.4 -216.2 89.5C-240 72.7 -237 36.3 -234 0L0 0Z" fill="#547570"></path><path d="M0 117C-14.4 107.9 -28.8 98.8 -36.4 87.8C-43.9 76.7 -44.7 63.6 -57.7 57.7C-70.8 51.9 -96.2 53.2 -108.1 44.8C-120 36.3 -118.5 18.2 -117 0L0 0Z" fill="#1d4b46"></path></g><g transform="translate(0, 540)"><path d="M0 -351C58.4 -357 116.8 -363 132.8 -320.6C148.8 -278.2 122.3 -187.5 155.6 -155.6C188.8 -123.6 281.8 -150.5 324.3 -134.3C366.8 -118.2 358.9 -59.1 351 0L0 0Z" fill="#c3cfcd"></path><path d="M0 -234C38.9 -238 77.9 -242 88.5 -213.7C99.2 -185.5 81.5 -125 103.7 -103.7C125.9 -82.4 187.8 -100.3 216.2 -89.5C244.5 -78.8 239.3 -39.4 234 0L0 0Z" fill="#547570"></path><path d="M0 -117C19.5 -119 38.9 -121 44.3 -106.9C49.6 -92.7 40.8 -62.5 51.9 -51.9C62.9 -41.2 93.9 -50.2 108.1 -44.8C122.3 -39.4 119.6 -19.7 117 0L0 0Z" fill="#1d4b46"></path></g></svg>