<svg id="visual" viewBox="0 0 960 540" width="960" height="540" xmlns="http://www.w3.org/2000/svg" xmlns:xlink="http://www.w3.org/1999/xlink" version="1.1"><path d="M0 44L120 28L240 39L360 44L480 44L600 33L720 28L840 50L960 23L960 0L840 0L720 0L600 0L480 0L360 0L240 0L120 0L0 0Z" fill="#1d4b46"></path><path d="M0 82L120 71L240 82L360 104L480 114L600 98L720 60L840 104L960 71L960 21L840 48L720 26L600 31L480 42L360 42L240 37L120 26L0 42Z" fill="#23645c"></path><path d="M0 109L120 104L240 104L360 136L480 141L600 125L720 82L840 131L960 109L960 69L840 102L720 58L600 96L480 112L360 102L240 80L120 69L0 80Z" fill="#2a7e71"></path><path d="M0 147L120 152L240 147L360 174L480 190L600 179L720 131L840 168L960 152L960 107L840 129L720 80L600 123L480 139L360 134L240 102L120 102L0 107Z" fill="#339988"></path><path d="M0 185L120 179L240 195L360 222L480 239L600 201L720 152L840 201L960 174L960 150L840 166L720 129L600 177L480 188L360 172L240 145L120 150L0 145Z" fill="#38aa95"></path><path d="M0 244L120 244L240 255L360 260L480 309L600 276L720 201L840 249L960 233L960 172L840 199L720 150L600 199L480 237L360 220L240 193L120 177L0 183Z" fill="#38aa95"></path><path d="M0 330L120 330L240 363L360 352L480 379L600 374L720 293L840 357L960 330L960 231L840 247L720 199L600 274L480 307L360 258L240 253L120 242L0 242Z" fill="#339988"></path><path d="M0 363L120 357L240 384L360 368L480 401L600 390L720 314L840 384L960 347L960 328L840 355L720 291L600 372L480 377L360 350L240 361L120 328L0 328Z" fill="#2a7e71"></path><path d="M0 509L120 525L240 514L360 509L480 519L600 503L720 503L840 519L960 498L960 345L840 382L720 312L600 388L480 399L360 366L240 382L120 355L0 361Z" fill="#23645c"></path><path d="M0 541L120 541L240 541L360 541L480 541L600 541L720 541L840 541L960 541L960 496L840 517L720 501L600 501L480 517L360 507L240 512L120 523L0 507Z" fill="#1d4b46"></path></svg>