<svg id="visual" viewBox="0 0 900 600" width="900" height="600" xmlns="http://www.w3.org/2000/svg" xmlns:xlink="http://www.w3.org/1999/xlink" version="1.1"><path d="M0 85L18.8 86C37.7 87 75.3 89 112.8 86C150.3 83 187.7 75 225.2 67C262.7 59 300.3 51 337.8 49C375.3 47 412.7 51 450.2 64C487.7 77 525.3 99 562.8 108C600.3 117 637.7 113 675.2 103C712.7 93 750.3 77 787.8 78C825.3 79 862.7 97 881.3 106L900 115L900 0L881.3 0C862.7 0 825.3 0 787.8 0C750.3 0 712.7 0 675.2 0C637.7 0 600.3 0 562.8 0C525.3 0 487.7 0 450.2 0C412.7 0 375.3 0 337.8 0C300.3 0 262.7 0 225.2 0C187.7 0 150.3 0 112.8 0C75.3 0 37.7 0 18.8 0L0 0Z" fill="#1d4b46"></path><path d="M0 229L18.8 228C37.7 227 75.3 225 112.8 215C150.3 205 187.7 187 225.2 180C262.7 173 300.3 177 337.8 183C375.3 189 412.7 197 450.2 208C487.7 219 525.3 233 562.8 237C600.3 241 637.7 235 675.2 219C712.7 203 750.3 177 787.8 183C825.3 189 862.7 227 881.3 246L900 265L900 113L881.3 104C862.7 95 825.3 77 787.8 76C750.3 75 712.7 91 675.2 101C637.7 111 600.3 115 562.8 106C525.3 97 487.7 75 450.2 62C412.7 49 375.3 45 337.8 47C300.3 49 262.7 57 225.2 65C187.7 73 150.3 81 112.8 84C75.3 87 37.7 85 18.8 84L0 83Z" fill="#256b62"></path><path d="M0 253L18.8 252C37.7 251 75.3 249 112.8 239C150.3 229 187.7 211 225.2 206C262.7 201 300.3 209 337.8 215C375.3 221 412.7 225 450.2 235C487.7 245 525.3 261 562.8 267C600.3 273 637.7 269 675.2 259C712.7 249 750.3 233 787.8 240C825.3 247 862.7 277 881.3 292L900 307L900 263L881.3 244C862.7 225 825.3 187 787.8 181C750.3 175 712.7 201 675.2 217C637.7 233 600.3 239 562.8 235C525.3 231 487.7 217 450.2 206C412.7 195 375.3 187 337.8 181C300.3 175 262.7 171 225.2 178C187.7 185 150.3 203 112.8 213C75.3 223 37.7 225 18.8 226L0 227Z" fill="#2f8e7e"></path><path d="M0 325L18.8 321C37.7 317 75.3 309 112.8 296C150.3 283 187.7 265 225.2 262C262.7 259 300.3 271 337.8 283C375.3 295 412.7 307 450.2 316C487.7 325 525.3 331 562.8 330C600.3 329 637.7 321 675.2 313C712.7 305 750.3 297 787.8 303C825.3 309 862.7 329 881.3 339L900 349L900 305L881.3 290C862.7 275 825.3 245 787.8 238C750.3 231 712.7 247 675.2 257C637.7 267 600.3 271 562.8 265C525.3 259 487.7 243 450.2 233C412.7 223 375.3 219 337.8 213C300.3 207 262.7 199 225.2 204C187.7 209 150.3 227 112.8 237C75.3 247 37.7 249 18.8 250L0 251Z" fill="#38aa95"></path><path d="M0 385L18.8 382C37.7 379 75.3 373 112.8 361C150.3 349 187.7 331 225.2 327C262.7 323 300.3 333 337.8 348C375.3 363 412.7 383 450.2 392C487.7 401 525.3 399 562.8 390C600.3 381 637.7 365 675.2 356C712.7 347 750.3 345 787.8 351C825.3 357 862.7 371 881.3 378L900 385L900 347L881.3 337C862.7 327 825.3 307 787.8 301C750.3 295 712.7 303 675.2 311C637.7 319 600.3 327 562.8 328C525.3 329 487.7 323 450.2 314C412.7 305 375.3 293 337.8 281C300.3 269 262.7 257 225.2 260C187.7 263 150.3 281 112.8 294C75.3 307 37.7 315 18.8 319L0 323Z" fill="#38aa95"></path><path d="M0 409L18.8 407C37.7 405 75.3 401 112.8 390C150.3 379 187.7 361 225.2 358C262.7 355 300.3 367 337.8 385C375.3 403 412.7 427 450.2 433C487.7 439 525.3 427 562.8 417C600.3 407 637.7 399 675.2 394C712.7 389 750.3 387 787.8 395C825.3 403 862.7 421 881.3 430L900 439L900 383L881.3 376C862.7 369 825.3 355 787.8 349C750.3 343 712.7 345 675.2 354C637.7 363 600.3 379 562.8 388C525.3 397 487.7 399 450.2 390C412.7 381 375.3 361 337.8 346C300.3 331 262.7 321 225.2 325C187.7 329 150.3 347 112.8 359C75.3 371 37.7 377 18.8 380L0 383Z" fill="#2f8e7e"></path><path d="M0 571L18.8 569C37.7 567 75.3 563 112.8 562C150.3 561 187.7 563 225.2 566C262.7 569 300.3 573 337.8 573C375.3 573 412.7 569 450.2 567C487.7 565 525.3 565 562.8 561C600.3 557 637.7 549 675.2 552C712.7 555 750.3 569 787.8 572C825.3 575 862.7 567 881.3 563L900 559L900 437L881.3 428C862.7 419 825.3 401 787.8 393C750.3 385 712.7 387 675.2 392C637.7 397 600.3 405 562.8 415C525.3 425 487.7 437 450.2 431C412.7 425 375.3 401 337.8 383C300.3 365 262.7 353 225.2 356C187.7 359 150.3 377 112.8 388C75.3 399 37.7 403 18.8 405L0 407Z" fill="#256b62"></path><path d="M0 601L18.8 601C37.7 601 75.3 601 112.8 601C150.3 601 187.7 601 225.2 601C262.7 601 300.3 601 337.8 601C375.3 601 412.7 601 450.2 601C487.7 601 525.3 601 562.8 601C600.3 601 637.7 601 675.2 601C712.7 601 750.3 601 787.8 601C825.3 601 862.7 601 881.3 601L900 601L900 557L881.3 561C862.7 565 825.3 573 787.8 570C750.3 567 712.7 553 675.2 550C637.7 547 600.3 555 562.8 559C525.3 563 487.7 563 450.2 565C412.7 567 375.3 571 337.8 571C300.3 571 262.7 567 225.2 564C187.7 561 150.3 559 112.8 560C75.3 561 37.7 565 18.8 567L0 569Z" fill="#1d4b46"></path></svg>