<?xml version="1.0" standalone="no"?>
<svg id="wave" style="transform:rotate(180deg); transition: 0.3s" viewBox="0 0 1440 490" version="1.1" xmlns="http://www.w3.org/2000/svg"><defs><linearGradient id="sw-gradient-0" x1="0" x2="0" y1="1" y2="0"><stop stop-color="rgba(40, 118, 104, 1)" offset="0%"></stop><stop stop-color="rgba(56, 170, 149, 1)" offset="100%"></stop></linearGradient></defs><path style="transform:translate(0, 0px); opacity:1" fill="url(#sw-gradient-0)" d="M0,147L26.7,122.5C53.3,98,107,49,160,40.8C213.3,33,267,65,320,81.7C373.3,98,427,98,480,98C533.3,98,587,98,640,130.7C693.3,163,747,229,800,269.5C853.3,310,907,327,960,285.8C1013.3,245,1067,147,1120,98C1173.3,49,1227,49,1280,89.8C1333.3,131,1387,212,1440,228.7C1493.3,245,1547,196,1600,147C1653.3,98,1707,49,1760,65.3C1813.3,82,1867,163,1920,171.5C1973.3,180,2027,114,2080,89.8C2133.3,65,2187,82,2240,98C2293.3,114,2347,131,2400,138.8C2453.3,147,2507,147,2560,196C2613.3,245,2667,343,2720,383.8C2773.3,425,2827,408,2880,383.8C2933.3,359,2987,327,3040,302.2C3093.3,278,3147,261,3200,253.2C3253.3,245,3307,245,3360,269.5C3413.3,294,3467,343,3520,302.2C3573.3,261,3627,131,3680,98C3733.3,65,3787,131,3813,163.3L3840,196L3840,490L3813.3,490C3786.7,490,3733,490,3680,490C3626.7,490,3573,490,3520,490C3466.7,490,3413,490,3360,490C3306.7,490,3253,490,3200,490C3146.7,490,3093,490,3040,490C2986.7,490,2933,490,2880,490C2826.7,490,2773,490,2720,490C2666.7,490,2613,490,2560,490C2506.7,490,2453,490,2400,490C2346.7,490,2293,490,2240,490C2186.7,490,2133,490,2080,490C2026.7,490,1973,490,1920,490C1866.7,490,1813,490,1760,490C1706.7,490,1653,490,1600,490C1546.7,490,1493,490,1440,490C1386.7,490,1333,490,1280,490C1226.7,490,1173,490,1120,490C1066.7,490,1013,490,960,490C906.7,490,853,490,800,490C746.7,490,693,490,640,490C586.7,490,533,490,480,490C426.7,490,373,490,320,490C266.7,490,213,490,160,490C106.7,490,53,490,27,490L0,490Z"></path></svg>